<?xml version="1.0" encoding="UTF-8"?>
<svg width="40px" height="40px" viewBox="0 0 711 621" xmlns="http://www.w3.org/2000/svg" xmlns:xlink="http://www.w3.org/1999/xlink">
    <defs>
        <path id="a" d="m259.32 231.35c-62.44-36.05-103.7-102.4-103.7-175.62 0-5.52-4.48-10-10-10s-10 4.48-10 10c0 79.76 45.36 151.64 113.7 189.62 4.81 2.77 10.9 0.73 13.67-4.08 2.77-4.81 0.73-10.9-4.08-13.67-2.19-1.26-4.59-1.9-7.03-2.25z"/>
    </defs>
    <g fill="#FFC300">
        <use xlink:href="#a"/>
        <use transform="matrix(-1 0 0 1 498.63 0)" xlink:href="#a"/>
        <path d="m455.32 231.35c-2.44 0.35-4.84 1-7.03 2.25-4.81 2.77-6.85 8.86-4.08 13.67 2.77 4.81 8.86 6.85 13.67 4.08 68.34-37.98 113.7-109.86 113.7-189.62 0-5.52-4.48-10-10-10s-10 4.48-10 10c0 73.22-41.26 139.57-103.7 175.62-2.19 1.26-4.59 1.9-7.03 2.25z" fill-rule="evenodd"/>
        <path d="m355.66 620.31c-143.38 0-259.66-116.28-259.66-259.66 0-63.55 22.89-121.9 61.66-167.39 4.16-4.9 3.6-12.19-1.3-16.35-4.9-4.16-12.19-3.6-16.35 1.3-43.95 51.89-70.67 118.16-70.67 190.44 0 154.41 125.25 279.66 279.66 279.66s279.66-125.25 279.66-279.66c0-72.28-26.72-138.55-70.67-190.44-4.16-4.9-11.45-5.46-16.35-1.3-4.9 4.16-5.46 11.45-1.3 16.35 38.77 45.49 61.66 103.84 61.66 167.39 0 143.38-116.28 259.66-259.66 259.66z"/>
        <path d="m536.19 310.44c-6.23-3.59-14.03-1.56-17.62 4.67-3.59 6.23-1.56 14.03 4.67 17.62 33.41 19.29 55.44 54.42 55.44 93.27 0 5.52 4.48 10 10 10s10-4.48 10-10c0-44.37-25.31-84.83-62.49-105.56z"/>
        <path d="m175.14 310.44c-37.18 20.73-62.49 61.19-62.49 105.56 0 5.52 4.48 10 10 10s10-4.48 10-10c0-38.86 22.03-73.98 55.44-93.27 6.23-3.59 8.26-11.39 4.67-17.62-3.59-6.23-11.39-8.26-17.62-4.67z"/>
    </g>
</svg>